<?xml version="1.0"?>
<svg xmlns="http://www.w3.org/2000/svg" xmlns:xlink="http://www.w3.org/1999/xlink" viewBox="0 0 512 512" width="512" height="512"><defs><linearGradient id="New_Gradient_Swatch_1" x1="128.686" y1="216.686" x2="271.314" y2="74.059" gradientUnits="userSpaceOnUse"><stop offset="0.004" stop-color="#f1cccd"/><stop offset="1" stop-color="#faeeee"/></linearGradient><linearGradient id="New_Gradient_Swatch_1-2" x1="76.686" y1="228.686" x2="195.314" y2="110.059" xlink:href="#New_Gradient_Swatch_1"/><linearGradient id="New_Gradient_Swatch_1-3" x1="206.686" y1="230.686" x2="321.314" y2="116.059" xlink:href="#New_Gradient_Swatch_1"/><linearGradient id="New_Gradient_Swatch_1-4" x1="286.686" y1="246.686" x2="369.314" y2="164.059" xlink:href="#New_Gradient_Swatch_1"/><linearGradient id="New_Gradient_Swatch_1-5" x1="98.627" y1="490.627" x2="346.627" y2="242.627" xlink:href="#New_Gradient_Swatch_1"/><linearGradient id="New_Gradient_Swatch_1-6" x1="50" y1="442.32" x2="162.408" y2="329.912" xlink:href="#New_Gradient_Swatch_1"/><linearGradient id="New_Gradient_Swatch_22" x1="324.118" y1="466.882" x2="459.882" y2="331.118" gradientUnits="userSpaceOnUse"><stop offset="0.011" stop-color="#dcdce3"/><stop offset="1" stop-color="#ededf1"/></linearGradient></defs><g id="_10-prohibit_time" data-name="10-prohibit time"><g id="linear_color" data-name="linear color"><path d="M232,256V48a32,32,0,0,0-32-32h0a32,32,0,0,0-32,32V256Z" style="fill:url(#New_Gradient_Swatch_1)"/><path d="M168,96a32,32,0,0,0-32-32h0a32,32,0,0,0-32,32V256h64Z" style="fill:url(#New_Gradient_Swatch_1-2)"/><path d="M296,256V104a32,32,0,0,0-32-32h0a32,32,0,0,0-32,32V256Z" style="fill:url(#New_Gradient_Swatch_1-3)"/><path d="M360,256V168a32,32,0,0,0-32-32h0a32,32,0,0,0-32,32v88Z" style="fill:url(#New_Gradient_Swatch_1-4)"/><path d="M104,256H360a0,0,0,0,1,0,0V432a64,64,0,0,1-64,64H104a0,0,0,0,1,0,0V256A0,0,0,0,1,104,256Z" style="fill:url(#New_Gradient_Swatch_1-5)"/><path d="M104,496.32,42.85,421.581A48,48,0,0,1,32,391.186V240.32s72-8,72,56v48c104,0,112,152,112,152Z" style="fill:url(#New_Gradient_Swatch_1-6)"/><circle cx="392" cy="399" r="96" style="fill:url(#New_Gradient_Swatch_22)"/><path d="M392,291a108.153,108.153,0,0,0-20,1.864V168a43.969,43.969,0,0,0-64-39.172V104a43.969,43.969,0,0,0-64-39.172V48a44,44,0,0,0-88,0v8.828A43.969,43.969,0,0,0,92,96V243.373c-24.868-18.754-59.775-15.152-61.325-14.98A12,12,0,0,0,20,240.32V391.19a60.1,60.1,0,0,0,13.563,37.989l61.15,74.739a12,12,0,0,0,9.287,4.4h.034L296,508a75.772,75.772,0,0,0,44.256-14.226A107.991,107.991,0,1,0,392,291ZM328,148a20.023,20.023,0,0,1,20,20v76H308V168A20.023,20.023,0,0,1,328,148ZM264,84a20.023,20.023,0,0,1,20,20V244H244V104A20.023,20.023,0,0,1,264,84ZM180,48a20,20,0,0,1,40,0V244H180ZM116,96a20,20,0,0,1,40,0V244H116ZM296,484l-186.327.3-57.54-70.327A36.06,36.06,0,0,1,44,391.19V252.117c10.2.5,25.491,2.959,35.935,12.359C88.054,271.784,92,282.2,92,296.32v48a12,12,0,0,0,12,12c31.905,0,57.146,16.628,75.023,49.424A12,12,0,0,0,200.1,394.256c-19.879-36.468-48.784-57.463-84.1-61.3V268H348v32.378A107.925,107.925,0,0,0,319.092,478.6,51.933,51.933,0,0,1,296,484Zm108-1.871V471a12,12,0,0,0-24,0v11.129A84.17,84.17,0,0,1,308.871,411H320a12,12,0,0,0,0-24H308.871A84.17,84.17,0,0,1,380,315.871V327a12,12,0,0,0,24,0V315.871A84.17,84.17,0,0,1,475.129,387H464a12,12,0,0,0,0,24h11.129A84.17,84.17,0,0,1,404,482.129Z"/><path d="M415.515,358.515,389.631,384.4l-24.265-12.132a12,12,0,1,0-10.732,21.466l32,16a12,12,0,0,0,13.851-2.248l32-32a12,12,0,0,0-16.97-16.97Z"/></g></g></svg>
